<?xml version="1.0" encoding="UTF-8"?>
<svg id="Layer_1" xmlns="http://www.w3.org/2000/svg" version="1.1" viewBox="0 0 378 429">
  <!-- Generator: Adobe Illustrator 29.5.1, SVG Export Plug-In . SVG Version: 2.1.0 Build 141)  -->
  <defs>
    <style>
      .st0, .st1 {
        fill: #fff;
      }

      .st1 {
        stroke: #fff;
        stroke-miterlimit: 10;
        stroke-width: 12px;
      }
    </style>
  </defs>
  <path class="st0" d="M152.3,1.9c-1.5,0-2.9,0-4.4.1-44.3,2.7-79.6,45-78.7,94.5,0,4.4.5,8.8,1.1,13.1L.8,123.7l-.8,243.5,305.3,61.1,75.2-27.4-2.3-310.8-39.1-7.8-32.9-20.4-39.1,7.9c-9.6-31.4-33.8-56.6-65.1-56.6,7.6,5.9,12,11.1,14.7,15.8,22.5,6.2,31,24.1,37.7,43.3l-136.3,27.6c5.3-42,31.2-69.9,57.8-76.1l-17.2-5c-24.2,9.9-52,42.5-51,83.2l-28.9,5.9c-.6-4-1-8-1-12.1-.8-43.8,30.2-81.3,69.1-83.7,1.4,0,2.7-.1,4.1-.1,34.7.2,63.3,28.8,67.3,67.5l10.8-2.2C224.2,33.9,191.6,1.9,152.3,1.9ZM225.9,169.5v78.1h-87.7v-65.6l87.7-12.5ZM135.4,182.4v65.2h-68.5v-55.4l68.5-9.8ZM66.9,250.3h68.5v65.9l-68.5-10.1v-55.8ZM138.2,250.3h87.7v79.3l-87.7-13v-66.3Z"/>
  <g>
    <line class="st1" x1="61.9" y1="248.9" x2="230.8" y2="248.9"/>
    <line class="st1" x1="136.9" y1="177.7" x2="136.9" y2="321.4"/>
  </g>
</svg>