<svg xmlns="http://www.w3.org/2000/svg" viewBox="0 0 1231.307 290.067"><path d="M34.648 272.298c-5.33 0-10.147-1.188-14.436-3.553-4.297-2.367-7.483-6.81-9.551-13.327a16.916 16.916 0 01-.666-2.665c-.153-.889-.222-1.923-.222-3.11 0-5.92 1.333-13.326 3.997-22.21a192.195 192.195 0 019.773-25.764c-1.776 2.374-3.852 5.262-6.219 8.663-2.374 3.408-5.775 7.773-10.217 13.104-1.187 1.187-2.519 1.777-3.998 1.777-2.075 0-3.11-1.18-3.11-3.555 0-1.776.591-3.254 1.777-4.442 7.698-9.772 14.583-18.503 20.656-26.207 6.067-7.697 10.585-14.214 13.548-19.545 0-.292-.076-.514-.221-.666-.154-.147-.223-.369-.223-.667 0-.888.444-2.22 1.333-3.997 2.367-7.108 4.81-13.105 7.33-17.99 2.512-4.888 5.253-7.622 8.217-8.22.59 0 1.18-.068 1.777-.221a7.396 7.396 0 011.776-.222c3.256 0 6.22.742 8.885 2.22 2.665 1.486 3.998 3.707 3.998 6.664 0 2.666-.965 5.927-2.888 9.772-1.93 3.853-4.372 8.592-7.33 14.215a4216.58 4216.58 0 00-17.546 37.09c-5.184 11.106-8.072 20.212-8.661 27.32-.299 1.186-.445 2.297-.445 3.331v3.332c0 11.847 3.846 17.767 11.55 17.767 4.734 0 10.807-2.589 18.212-7.774 7.4-5.177 14.95-11.548 22.654-19.1 7.698-7.551 14.73-14.804 21.1-21.766 6.365-6.955 10.73-12.216 13.105-15.769.887-.889 1.776-1.333 2.665-1.333 1.18 0 2.144.444 2.888 1.333.735.888.81 2.075.222 3.553-2.666 5.04-7.185 11.328-13.549 18.88-6.372 7.551-13.48 15.103-21.321 22.654-7.85 7.551-15.479 13.991-22.878 19.322-3.852 2.964-8.661 5.553-14.436 7.774-5.775 2.22-11.626 3.332-17.546 3.332zm48.418-159.025c-3.852 0-7.85-.368-11.993-1.11-4.15-.736-6.22-3.478-6.22-8.219 0-.888 2-2.956 5.998-6.219 3.998-3.254 8.141-6.586 12.437-9.994 4.29-3.4 6.886-5.4 7.775-5.996 5.031-4.144 8.14-6.22 9.328-6.22 1.478 0 1.478 1.93 0 5.775-1.486 3.852-2.222 7.26-2.222 10.216 0 1.485-.888 3.999-2.664 7.552-1.778 3.553-3.853 6.816-6.22 9.773-2.374 2.963-4.442 4.442-6.219 4.442z"/><path d="M141.702 272.298c-12.439 0-21.1-3.11-25.987-9.328-4.886-6.219-7.329-13.917-7.329-23.1 0-8.585 1.999-19.391 5.997-32.426 3.997-13.027 9.252-27.096 15.769-42.2a822.413 822.413 0 0121.1-45.086c7.551-14.95 15.103-28.721 22.654-41.31 7.551-12.585 14.139-22.725 19.767-30.429 5.622-7.399 11.695-14.805 18.212-22.21 6.51-7.4 13.77-13.618 21.767-18.657C241.647 2.52 250.677 0 260.748 0c6.808 0 12.66 1.853 17.546 5.553 4.886 3.707 7.33 9.26 7.33 16.658 0 2.964-.521 6.372-1.555 10.217-1.041 3.851-2.742 7.85-5.108 11.993-18.067 31.392-39.611 60.412-64.632 87.065-25.029 26.651-51.46 51.38-79.291 74.182a566.84 566.84 0 01-3.332 11.993 1263.104 1263.104 0 00-2.443 8.44 23.632 23.632 0 00-.444 4.664v4.665c0 7.106 1.18 13.325 3.553 18.656 2.367 5.329 6.365 7.994 11.994 7.994 5.33 0 11.918-2.588 19.767-7.772 7.843-5.178 15.77-11.55 23.765-19.101 7.996-7.552 15.25-14.881 21.767-21.988 6.51-7.107 11.104-12.584 13.77-16.435.888-.89 1.776-1.333 2.665-1.333 1.18 0 2.144.597 2.887 1.776.736 1.188.667 2.666-.222 4.443-2.963 5.039-7.704 11.258-14.214 18.656-6.518 7.406-13.77 14.88-21.767 22.432-7.995 7.552-15.699 14.145-23.098 19.766-9.183 6.512-18.511 9.774-27.985 9.774zm-.445-84.399c11.25-7.697 22.946-17.692 35.092-29.984 12.14-12.285 24.056-25.687 35.758-40.2 11.695-14.506 22.356-28.874 31.983-43.088 9.62-14.215 17.394-27.096 23.321-38.646 1.777-3.255 3.033-6.142 3.775-8.661.737-2.514 1.111-4.81 1.111-6.886 0-5.622-2.374-8.44-7.107-8.44-4.15 0-9.329 2.221-15.547 6.663-15.991 12.438-30.803 28.36-44.42 47.752a478.204 478.204 0 00-36.425 61.078c-10.661 21.322-19.844 41.464-27.542 60.412z"/><path d="M245.643 272.298c-12.439 0-21.1-3.11-25.987-9.328-4.886-6.219-7.329-13.917-7.329-23.1 0-8.585 1.999-19.391 5.997-32.426 3.997-13.027 9.252-27.096 15.769-42.2a822.413 822.413 0 0121.1-45.086c7.551-14.95 15.103-28.721 22.654-41.31 7.552-12.585 14.139-22.725 19.767-30.429 5.622-7.399 11.695-14.805 18.212-22.21 6.51-7.4 13.77-13.618 21.767-18.657C345.588 2.52 354.618 0 364.689 0c6.808 0 12.66 1.853 17.546 5.553 4.886 3.707 7.33 9.26 7.33 16.658 0 2.964-.521 6.372-1.555 10.217-1.041 3.851-2.742 7.85-5.108 11.993-18.067 31.392-39.61 60.412-64.632 87.065-25.028 26.651-51.46 51.38-79.291 74.182a566.84 566.84 0 01-3.332 11.993 1263.104 1263.104 0 00-2.443 8.44 23.632 23.632 0 00-.444 4.664v4.665c0 7.106 1.18 13.325 3.553 18.656 2.367 5.329 6.365 7.994 11.994 7.994 5.33 0 11.918-2.588 19.767-7.772 7.843-5.178 15.77-11.55 23.765-19.101 7.997-7.552 15.25-14.881 21.767-21.988 6.51-7.107 11.105-12.584 13.77-16.435.888-.89 1.777-1.333 2.665-1.333 1.18 0 2.144.597 2.887 1.776.736 1.188.667 2.666-.222 4.443-2.963 5.039-7.704 11.258-14.214 18.656-6.518 7.406-13.77 14.88-21.767 22.432-7.995 7.552-15.699 14.145-23.098 19.766-9.183 6.512-18.511 9.774-27.985 9.774zm-.445-84.399c11.25-7.697 22.946-17.692 35.093-29.984 12.138-12.285 24.055-25.687 35.757-40.2 11.695-14.506 22.356-28.874 31.983-43.088 9.62-14.215 17.394-27.096 23.321-38.646 1.777-3.255 3.033-6.142 3.776-8.661.736-2.514 1.11-4.81 1.11-6.886 0-5.622-2.374-8.44-7.107-8.44-4.15 0-9.328 2.221-15.547 6.663-15.991 12.438-30.803 28.36-44.42 47.752-13.625 19.4-25.764 39.757-36.425 61.078s-19.844 41.464-27.541 60.412z"/><path d="M439.757 272.298c-5.33 0-10.071-1.188-14.215-3.553-4.15-2.367-7.26-6.81-9.328-13.327a196.31 196.31 0 00-1.11-5.108 26.572 26.572 0 01-.666-5.997c0-7.107.957-15.103 2.887-23.987 1.922-8.884 4.067-16.283 6.44-22.21-1.187.888-3.262 3.852-6.218 8.884-2.964 5.039-6.664 10.883-11.106 17.546s-9.404 13.326-14.88 19.99c-5.484 6.663-11.404 12.145-17.768 16.435-6.372 4.295-13.105 6.44-20.212 6.44-4.74 0-10.439-1.331-17.102-3.997-6.662-2.666-11.48-6.364-14.437-11.105-2.963-4.734-4.442-10.66-4.442-17.768 0-8.586 1.923-17.99 5.775-28.208 3.845-10.216 8.732-19.767 14.659-28.65 2.068-2.957 4.442-6.511 7.108-10.662 2.664-4.143 5.33-7.773 7.995-10.882s4.587-4.81 5.775-5.108c3.553-1.18 7.697-1.778 12.437-1.778 5.033 0 8.731.597 11.105 1.778 2.068.887 3.11 1.928 3.11 3.109 0 1.485-1.187 3.408-3.554 5.774-3.261 2.964-7.704 7.406-13.326 13.326-5.629 5.928-11.182 13.035-16.658 21.322-5.483 8.295-9.994 17.477-13.548 27.541-2.963 7.996-4.442 14.957-4.442 20.878 0 10.368 4.143 15.546 12.438 15.546 7.107 0 14.658-2.956 22.655-8.883 7.995-5.92 15.769-13.173 23.32-21.766 7.552-8.586 14.36-17.102 20.434-25.542 6.065-8.44 10.73-15.172 13.992-20.212 2.956-4.143 6.289-9.473 9.994-15.99 3.7-6.51 7.33-12.883 10.884-19.102 3.553-6.218 6.364-10.807 8.44-13.77 2.068 0 5.254.374 9.55 1.111 4.29.743 7.996 1.999 11.105 3.775s3.922 3.999 2.444 6.663a4623.334 4623.334 0 00-8.219 13.771 2010.528 2010.528 0 00-11.104 18.878c-3.707 6.372-6.594 11.48-8.663 15.325-7.107 13.625-11.702 28.284-13.77 43.977-.299 1.187-.444 2.298-.444 3.332v3.331c0 11.847 3.997 17.768 11.994 17.768 4.442 0 10.362-2.666 17.767-7.996 7.4-5.33 15.027-11.695 22.878-19.1 7.842-7.4 14.95-14.583 21.321-21.545 6.364-6.954 10.73-12.215 13.104-15.769.59-.888 1.479-1.332 2.665-1.332 1.18 0 2.145.444 2.888 1.332.735.888.665 2.076-.222 3.554-2.666 5.039-7.185 11.327-13.549 18.879-6.372 7.551-13.403 15.103-21.1 22.654-7.704 7.552-15.256 13.992-22.654 19.322-3.852 2.964-8.739 5.553-14.659 7.775-5.927 2.22-11.847 3.331-17.768 3.331z"/><path d="M523.26 290.067c-11.848 0-17.768-3.263-17.768-9.774 0-4.74 2.513-9.627 7.551-14.658 3.845-3.846 8.142-6.955 12.882-9.33 4.734-2.367 7.697-3.552 8.885-3.552 1.478 0 2.29.596 2.442 1.777.146 1.186-.52 2.074-1.999 2.665-2.964 1.776-6.295 4.22-9.995 7.329-3.705 3.11-5.551 6.44-5.551 9.994 0 4.734 2.81 7.108 8.439 7.108 6.809 0 13.916-2 21.322-5.997 7.399-3.997 14.283-9.106 20.656-15.325 6.364-6.218 11.55-12.507 15.545-18.879 4-6.364 6-11.917 6-16.657 0-3.845-1.333-7.399-4-10.661-2.664-3.255-8.148-7.107-16.437-11.549a249.066 249.066 0 01-16.212-10.217c-5.184-3.553-9.106-7.843-11.771-12.882-2.374 4.151-5.407 9.106-9.106 14.88-3.707 5.776-8.072 11.772-13.104 17.991-1.777 1.777-3.554 2.666-5.33 2.666s-2.666-.736-2.666-2.222c0-.888.735-2.366 2.221-4.44 7.996-9.475 13.916-18.214 17.768-26.21 3.846-7.995 6.51-14.062 7.996-18.212 1.18-8.586 5.178-16.727 11.994-24.431 6.809-7.697 15.103-14.437 24.877-20.21 9.77-5.776 19.764-10.288 29.982-13.55 10.218-3.255 19.324-4.886 27.318-4.886s15.105 1.486 21.323 4.442c6.219 2.964 9.326 7.705 9.326 14.215 0 3.553-1.04 7.405-3.107 11.549-2.668 5.63-7.11 10.66-13.329 15.103-.298.298-.742.445-1.331.445-2.373 0-3.552-1.035-3.552-3.11 0-1.479.735-2.957 2.22-4.442 2.365-2.068 4.29-4.588 5.775-7.551 1.477-2.958 2.22-5.775 2.22-8.44 0-5.332-3.108-7.996-9.327-7.996-6.517 0-15.034 1.776-25.543 5.33-10.516 3.554-20.212 8.148-29.094 13.77-10.072 6.517-18.51 13.625-25.32 21.323-6.817 7.703-10.218 14.512-10.218 20.433 0 2.964.958 5.705 2.888 8.217 1.923 2.52 5.698 5.407 11.326 8.662 2.959 1.777 7.107 4.075 12.438 6.886 5.33 2.818 9.92 5.406 13.773 7.773 12.14 7.406 18.212 15.255 18.212 23.544 0 6.814-2.966 13.7-8.886 20.654-5.928 6.962-13.549 13.326-22.875 19.1a145.836 145.836 0 01-29.541 13.994c-10.37 3.553-20.141 5.33-29.317 5.33zM671.62 272.298c-5.332 0-10.148-1.188-14.438-3.553-4.295-2.367-7.48-6.81-9.549-13.327a16.916 16.916 0 01-.666-2.665c-.153-.889-.222-1.923-.222-3.11 0-5.92 1.332-13.326 3.997-22.21a192.446 192.446 0 019.771-25.764c-1.775 2.374-3.85 5.262-6.217 8.663-2.373 3.408-5.775 7.773-10.216 13.104-1.187 1.187-2.52 1.777-3.998 1.777-2.076 0-3.109-1.18-3.109-3.555 0-1.776.59-3.254 1.776-4.442 7.698-9.772 14.582-18.503 20.657-26.207 6.065-7.697 10.583-14.214 13.549-19.545 0-.292-.079-.514-.224-.666-.153-.147-.224-.369-.224-.667 0-.888.448-2.22 1.336-3.997 2.365-7.108 4.808-13.105 7.326-17.99 2.515-4.888 5.257-7.622 8.219-8.22a7.12 7.12 0 001.78-.221 7.376 7.376 0 011.775-.222c3.253 0 6.219.742 8.882 2.22 2.668 1.486 4 3.707 4 6.664 0 2.666-.967 5.927-2.888 9.772-1.929 3.853-4.372 8.592-7.33 14.215a4183.948 4183.948 0 00-17.545 37.09c-5.186 11.106-8.073 20.212-8.662 27.32-.299 1.186-.444 2.297-.444 3.331v3.332c0 11.847 3.846 17.767 11.55 17.767 4.733 0 10.807-2.589 18.212-7.774 7.397-5.177 14.948-11.548 22.655-19.1 7.696-7.551 14.728-14.804 21.1-21.766 6.364-6.955 10.729-12.216 13.101-15.769.888-.889 1.78-1.333 2.668-1.333 1.178 0 2.145.444 2.887 1.333.735.888.81 2.075.22 3.553-2.663 5.04-7.181 11.328-13.55 18.88-6.367 7.551-13.478 15.103-21.319 22.654-7.849 7.551-15.478 13.991-22.875 19.322-3.854 2.964-8.663 5.553-14.437 7.774-5.775 2.22-11.629 3.332-17.549 3.332zm48.417-159.025c-3.85 0-7.849-.368-11.993-1.11-4.149-.736-6.219-3.478-6.219-8.219 0-.888 2-2.956 5.999-6.219 3.995-3.254 8.14-6.586 12.437-9.994 4.29-3.4 6.887-5.4 7.775-5.996 5.032-4.144 8.14-6.22 9.326-6.22 1.48 0 1.48 1.93 0 5.775-1.485 3.852-2.22 7.26-2.22 10.216 0 1.485-.888 3.999-2.667 7.552-1.776 3.553-3.85 6.816-6.219 9.773-2.373 2.963-4.44 4.442-6.219 4.442z"/><path d="M784.892 272.742c-8.293 0-15.549-1.929-21.767-5.775-10.368-6.219-15.545-17.469-15.545-33.759 0-6.809 1.178-14.659 3.551-23.543 2.07-7.399 5.775-15.47 11.106-24.21 5.33-8.73 11.62-17.1 18.88-25.096 7.252-7.997 15.172-14.506 23.763-19.545 8.588-5.033 17.172-7.552 25.767-7.552 3.551 0 6.663.444 9.326 1.333 3.556 1.186 6.588 3.331 9.106 6.44 2.515 3.11 3.776 7.038 3.776 11.772 0 5.038-1.261 7.85-3.776 8.44-2.518.596-3.775 0-3.775-1.777 0-.59.071-1.18.22-1.777.15-.59.224-1.034.224-1.333 0-2.366-.668-4.511-2-6.44-1.331-1.923-3.775-2.888-7.33-2.888-4.738 0-10.591 2.52-17.544 7.552-6.962 5.04-14.068 11.771-21.32 20.21-7.264 8.441-13.628 17.7-19.104 27.764-5.48 10.07-9.106 20.141-10.882 30.206a49.146 49.146 0 00-.668 4.22 37.972 37.972 0 00-.22 4.22c0 6.815 1.556 12.512 4.663 17.101 3.112 4.594 8.065 6.885 14.881 6.885 8.29 0 16.284-3.179 23.987-9.55 7.696-6.365 14.583-13.992 20.656-22.876 6.066-8.884 10.584-16.727 13.55-23.543 2.364-5.33 3.995-9.919 4.887-13.77.887-3.845 1.331-7.108 1.331-9.772 0-2.367-.224-4.442-.668-6.22-.443-1.777-.962-3.255-1.555-4.442-.593-1.777-.888-3.11-.888-3.997 0-2.367.958-4.29 2.887-5.775 1.925-1.478 3.925-2.22 6-2.22 1.775 0 3.696.595 5.774 1.776 2.365.596 5.622 1.04 9.77 1.333 4.145.297 8.588.443 13.33.443 5.028 0 10.139-.146 15.324-.443 5.178-.292 9.696-.89 13.546-1.778.593-.29 1.48-.444 2.667-.444 2.066 0 3.107.597 3.107 1.777 0 1.187-1.04 2.221-3.107 3.109-10.371 4.74-19.623 7.26-27.762 7.551-8.148.3-15.18.445-21.1.445.59 7.405-1.041 15.325-4.887 23.765-3.854 8.44-7.85 15.922-11.994 22.432-5.04 7.406-10.815 14.958-17.324 22.654-6.518 7.704-13.77 14.145-21.768 19.323-7.994 5.177-17.03 7.774-27.095 7.774z"/><path d="M885.72 273.63c-2.066 0-2.663-1.041-1.776-3.11.888-1.775 2.519-5.843 4.887-12.215 2.365-6.364 5.107-13.992 8.215-22.875 3.111-8.885 6.29-18.06 9.554-27.542a9604.624 9604.624 0 009.106-26.651c2.809-8.289 5.107-14.806 6.883-19.546.59-1.777 1.182-4.366 1.78-7.774.589-3.4 1.842-6.51 3.775-9.328 1.92-2.81 5.252-4.22 9.994-4.22 8.882 0 13.325 2.076 13.325 6.22 0 1.485-.743 3.997-2.22 7.551-3.555 7.996-7.409 17.178-11.55 27.54-4.152 10.37-7.852 20.143-11.105 29.318a9470.653 9470.653 0 00-7.55 21.321c2.953-4.143 7.77-10.063 14.436-17.767 6.663-7.698 14.135-15.992 22.432-24.876a469.898 469.898 0 0125.987-25.764c9.027-8.287 17.47-15.026 25.319-20.21 7.84-5.178 14.582-7.774 20.211-7.774 7.107 0 10.658 3.852 10.658 11.549 0 2.665-.742 6.663-2.22 11.993-2.663 7.406-6.073 14.59-10.217 21.544-4.149 6.962-7.85 14.292-11.106 21.988-5.626 13.924-8.882 25.174-9.77 33.76-.299 1.187-.444 2.298-.444 3.332v3.331c0 11.847 3.995 17.768 11.994 17.768 4.439 0 10.363-2.666 17.768-7.996 7.397-5.33 15.026-11.695 22.875-19.1 7.842-7.4 14.881-14.582 21.1-21.545 6.22-6.954 10.509-12.215 12.882-15.768.887-.89 1.775-1.333 2.667-1.333 1.179 0 2.141.444 2.887 1.333.735.887.81 2.075.22 3.553-2.663 5.04-7.185 11.328-13.549 18.88-6.372 7.55-13.4 15.102-21.1 22.653-7.703 7.552-15.254 13.992-22.651 19.323-4.443 2.964-9.927 5.63-16.437 7.996-6.517 2.367-13.034 3.4-19.544 3.11-8.297-.89-14.217-3.778-17.768-8.663-3.556-4.887-5.331-10.73-5.331-17.545 0-7.997 1.555-16.506 4.663-25.542 3.111-9.03 6.588-17.547 10.438-25.542 3.846-7.997 6.957-14.062 9.33-18.213 2.365-4.733 3.551-8.44 3.551-11.105 0-2.367-1.04-3.554-3.107-3.554-2.074 0-5.186 1.333-9.33 3.999-4.149 2.664-9.77 7.26-16.877 13.77-6.517 5.628-13.483 12.958-20.88 21.987a658.931 658.931 0 00-21.544 27.764c-6.96 9.48-13.034 17.622-18.212 24.43-5.185 6.817-8.815 10.814-10.882 11.994-1.485.888-4.816 2.367-9.994 4.442-5.185 2.068-9.106 3.109-11.773 3.109z"/><path d="M1088.72 290.067c-11.849 0-17.769-3.263-17.769-9.774 0-4.74 2.51-9.627 7.55-14.658 3.847-3.846 8.14-6.955 12.882-9.33 4.734-2.367 7.696-3.552 8.882-3.552 1.481 0 2.29.596 2.444 1.777.145 1.186-.519 2.074-2 2.665-2.962 1.776-6.293 4.22-9.994 7.329-3.704 3.11-5.55 6.44-5.55 9.994 0 4.734 2.808 7.108 8.437 7.108 6.812 0 13.919-2 21.324-5.997 7.397-3.997 14.284-9.106 20.656-15.325 6.364-6.218 11.55-12.507 15.545-18.879 3.999-6.364 5.999-11.917 5.999-16.657 0-3.845-1.332-7.399-4-10.661-2.663-3.255-8.147-7.107-16.436-11.549a249.603 249.603 0 01-16.213-10.217c-5.186-3.553-9.106-7.843-11.77-12.882-2.372 4.151-5.41 9.106-9.106 14.88-3.708 5.776-8.073 11.772-13.105 17.991-1.776 1.777-3.551 2.666-5.331 2.666-1.776 0-2.664-.736-2.664-2.222 0-.888.735-2.366 2.22-4.44 7.998-9.475 13.919-18.214 17.768-26.21 3.846-7.995 6.51-14.062 7.995-18.212 1.182-8.586 5.178-16.727 11.993-24.431 6.812-7.697 15.105-14.437 24.88-20.21 9.77-5.776 19.763-10.288 29.981-13.55 10.218-3.255 19.324-4.886 27.319-4.886s15.105 1.486 21.324 4.442c6.218 2.964 9.326 7.705 9.326 14.215 0 3.553-1.041 7.405-3.108 11.549-2.667 5.63-7.11 10.66-13.329 15.103-.299.298-.743.445-1.332.445-2.373 0-3.551-1.035-3.551-3.11 0-1.479.735-2.957 2.22-4.442 2.364-2.068 4.29-4.588 5.774-7.551 1.477-2.958 2.22-5.775 2.22-8.44 0-5.332-3.107-7.996-9.326-7.996-6.518 0-15.034 1.776-25.543 5.33-10.517 3.554-20.212 8.148-29.094 13.77-10.073 6.517-18.511 13.625-25.323 21.323-6.812 7.703-10.214 14.512-10.214 20.433 0 2.964.958 5.705 2.887 8.217 1.921 2.52 5.697 5.407 11.326 8.662 2.958 1.777 7.107 4.075 12.438 6.886 5.33 2.818 9.919 5.406 13.773 7.773 12.139 7.406 18.212 15.255 18.212 23.544 0 6.814-2.966 13.7-8.886 20.654-5.928 6.962-13.55 13.326-22.875 19.1a145.842 145.842 0 01-29.542 13.994c-10.368 3.553-20.142 5.33-29.315 5.33z"/></svg>